<?xml version="1.0" encoding="UTF-8"?><svg id="uuid-1cefc245-f708-4c58-b4f4-0180926a155f" xmlns="http://www.w3.org/2000/svg" viewBox="0 0 984.8 749.58"><defs><style>.uuid-f54f1fff-5973-4f99-bc48-270373c9c7d2{fill:#fff;}.uuid-f54f1fff-5973-4f99-bc48-270373c9c7d2,.uuid-9d246c0b-03a2-4748-930d-67b160b4de39,.uuid-df3f6b48-9a12-4fda-974f-ce738b53284c{stroke:#231f20;stroke-miterlimit:10;}.uuid-9d246c0b-03a2-4748-930d-67b160b4de39{stroke-width:3px;}.uuid-9d246c0b-03a2-4748-930d-67b160b4de39,.uuid-df3f6b48-9a12-4fda-974f-ce738b53284c{fill:none;}.uuid-df3f6b48-9a12-4fda-974f-ce738b53284c{stroke-width:8px;}</style></defs><g><path class="uuid-f54f1fff-5973-4f99-bc48-270373c9c7d2" d="M105.14,144.3h-37.93v-28.44h37.93v-7.38c0-12.99,1.93-25.81,5.79-38.45,3.86-12.64,9.75-24.23,17.65-34.77s17.91-18.96,30.02-25.28C170.72,3.66,185.2,.5,202.06,.5c12.99,0,24.67,1.41,35.03,4.21,10.35,2.82,19.4,6.15,27.13,10.01,7.72,3.87,13.51,7.37,17.38,10.54l-16.33,25.81c-5.62-5.27-13.96-9.75-25.02-13.43-11.06-3.69-23.09-5.53-36.08-5.53-14.75,0-26.78,3.78-36.08,11.33-9.31,7.55-16.16,17.12-20.54,28.71-4.4,11.59-6.58,23.36-6.58,35.29v8.43h137.48V390.29h-35.82V144.3h-101.66v245.99h-35.82V144.3Z"/><path class="uuid-f54f1fff-5973-4f99-bc48-270373c9c7d2" d="M588.16,390.29h-35.82V237.99c0-32.1-4.74-55.56-14.22-70.39s-24.41-22.25-44.77-22.25c-14.05,0-27.92,3.4-41.61,10.19-13.7,6.8-25.73,16.02-36.08,27.7-10.36,11.67-17.83,25-22.39,39.98v167.08h-35.82V116.91h32.66v62.3c7.37-13.27,17.03-24.87,28.97-34.83,11.93-9.95,25.46-17.72,40.56-23.31,15.09-5.58,30.72-8.38,46.88-8.38,15.09,0,27.92,2.8,38.45,8.38,10.53,5.59,18.96,13.53,25.28,23.83,6.32,10.3,10.88,22.7,13.7,37.19,2.81,14.49,4.21,30.64,4.21,48.44v159.75Z"/><path class="uuid-f54f1fff-5973-4f99-bc48-270373c9c7d2" d="M783.06,395.56c-19.67,0-37.93-3.76-54.78-11.28-16.86-7.52-31.43-17.84-43.72-30.96-12.3-13.12-21.86-28.25-28.71-45.39-6.85-17.14-10.27-35.51-10.27-55.11,0-25.44,5.88-48.79,17.65-70.06,11.76-21.26,28-38.25,48.72-50.97,20.72-12.72,44.25-19.09,70.58-19.09s50.65,6.45,70.85,19.36c20.19,12.91,36.08,29.91,47.67,51.01,11.59,21.1,17.38,44.21,17.38,69.32v8.11c0,2.62-.18,4.62-.53,6.02h-234.93c1.75,19.57,7.28,36.95,16.59,52.15,9.3,15.19,21.42,27.25,36.34,36.16,14.92,8.91,31.16,13.36,48.72,13.36s34.85-4.56,50.83-13.7c15.98-9.13,27.13-21.07,33.45-35.82l31.08,8.43c-5.62,13-14.22,24.76-25.81,35.29-11.59,10.53-25.2,18.7-40.82,24.49-15.63,5.79-32.39,8.69-50.3,8.69Zm-101.14-154.86h202.8c-1.41-19.8-6.77-37.18-16.07-52.12-9.31-14.95-21.42-26.67-36.34-35.19-14.93-8.51-31.34-12.77-49.25-12.77s-34.24,4.26-48.99,12.77c-14.75,8.51-26.78,20.33-36.08,35.44-9.31,15.12-14.67,32.41-16.07,51.87Z"/></g><g><path class="uuid-df3f6b48-9a12-4fda-974f-ce738b53284c" d="M152.79,278.35h141.47l146.66,460.74h-128.49l-23.82-90.2H158.43l-23.82,90.2H5.48L152.79,278.35Zm113.55,286.18l-42.82-162.23-42.82,162.23h85.64Z"/><path class="uuid-df3f6b48-9a12-4fda-974f-ce738b53284c" d="M702.43,502.88c-23.8,0-45.43,2.6-64.89,7.79s-33.97,13.85-43.48,25.96v202.47h-123.3V402.3h112.92v60.35c12.11-22.93,27.25-40.56,45.43-52.89,18.17-12.33,37.42-18.5,57.75-18.5h10.06c1.95,0,3.78,.22,5.52,.65v110.97Z"/><path class="uuid-df3f6b48-9a12-4fda-974f-ce738b53284c" d="M980.16,719.62c-11.25,4.77-23.26,9.2-36.02,13.3-12.77,4.12-25.74,7.24-38.94,9.41-13.2,2.16-26.07,3.24-38.61,3.24-18.61,0-35.69-3.07-51.27-9.22s-28.02-16.31-37.31-30.51c-9.31-14.2-13.95-33.38-13.95-57.54v-153.22h-42.18v-92.8h42.18v-107.07h123.3v107.07h66.84v92.8h-66.84v108.83c0,10.85,2.37,18.45,7.14,22.83,4.76,4.38,11.25,6.56,19.47,6.56,6.05,0,12.98-1.08,20.77-3.25,7.79-2.16,15.57-4.75,23.36-7.79l22.06,97.34Z"/></g><g><path class="uuid-9d246c0b-03a2-4748-930d-67b160b4de39" d="M804.5,134.59c-1.58,.7-3.4,1.43-5.46,2.17-2.06,.75-4.3,1.36-6.72,1.84-2.42,.48-4.85,.72-7.31,.72-3.34,0-6.37-.57-9.09-1.7-2.72-1.13-4.9-2.94-6.52-5.42-1.63-2.48-2.44-5.72-2.44-9.72v-39.4h-8.95v-13.43h8.95v-22.39h17.78v22.39h14.49v13.43h-14.49v33.41c.09,2.34,.74,4.05,1.97,5.14,1.23,1.08,2.81,1.62,4.74,1.62,1.75,0,3.51-.33,5.27-.99,1.75-.66,3.2-1.25,4.35-1.78l3.42,14.09Z"/><path class="uuid-9d246c0b-03a2-4748-930d-67b160b4de39" d="M877.85,138.01h-17.65v-38.16c0-5.28-1.03-9.21-3.09-11.81-2.06-2.59-4.9-3.89-8.49-3.89-2.11,0-4.35,.6-6.72,1.8-2.37,1.2-4.5,2.85-6.39,4.95-1.89,2.1-3.31,4.52-4.28,7.27v39.84h-17.51V41.88h17.51v40.53c2.72-4.34,6.26-7.72,10.6-10.16,4.35-2.43,9.11-3.65,14.29-3.65,4.48,0,8.14,.74,11,2.21,2.85,1.48,5.05,3.52,6.58,6.12,1.53,2.6,2.61,5.49,3.23,8.66,.61,3.17,.92,6.4,.92,9.7v42.71Z"/><path class="uuid-9d246c0b-03a2-4748-930d-67b160b4de39" d="M925.26,139.33c-5.53,0-10.54-.93-15.01-2.8-4.48-1.87-8.3-4.43-11.46-7.68-3.16-3.26-5.58-6.97-7.24-11.13-1.67-4.17-2.5-8.64-2.5-13.41,0-6.42,1.47-12.35,4.41-17.78,2.94-5.43,7.11-9.77,12.51-13.02,5.4-3.26,11.87-4.88,19.42-4.88s13.87,1.63,19.23,4.89c5.35,3.26,9.48,7.54,12.38,12.85,2.9,5.3,4.35,11.09,4.35,17.35,0,1.13-.05,2.2-.13,3.2-.09,1-.18,1.85-.26,2.54h-53.2c.26,3.6,1.25,6.67,2.96,9.2,1.71,2.53,3.91,4.48,6.58,5.86,2.68,1.37,5.51,2.06,8.49,2.06,3.6,0,6.96-.86,10.07-2.57,3.12-1.71,5.24-4.02,6.39-6.91l15.01,4.21c-1.58,3.51-3.91,6.63-6.98,9.35-3.07,2.72-6.72,4.85-10.93,6.39-4.21,1.54-8.91,2.3-14.09,2.3Zm-18.04-40.95h36.08c-.35-3.43-1.34-6.41-2.96-8.94-1.63-2.53-3.75-4.5-6.39-5.92-2.63-1.42-5.58-2.12-8.82-2.12s-6.04,.71-8.63,2.12c-2.59,1.42-4.7,3.39-6.32,5.92-1.63,2.53-2.61,5.51-2.96,8.94Z"/></g></svg>